<svg width="28" height="27" viewBox="0 0 28 27" fill="none" xmlns="http://www.w3.org/2000/svg">
<path fill-rule="evenodd" clip-rule="evenodd" d="M15.4677 1.2494C15.0097 -0.416463 12.6472 -0.416471 12.1893 1.2494L11.9349 2.17485C11.8334 2.54402 11.4541 2.76317 11.0836 2.66674L10.1268 2.41775C8.60912 2.0228 7.48352 3.68083 8.22472 4.9174C8.11094 4.8729 8.01745 4.78079 7.97452 4.65785L7.54099 3.41641C6.97221 1.78768 4.6162 1.95872 4.27129 3.65378L4.0795 4.59636C4.00307 4.97199 3.6396 5.21806 3.26361 5.14872L2.29202 4.96956C0.620631 4.66135 -0.427565 6.73158 0.813821 7.88908L1.66205 8.67999C1.93032 8.93013 1.95835 9.34635 1.72623 9.63282L0.99228 10.5386C-0.0818548 11.8642 1.23366 13.7628 2.84747 13.2161L3.26044 13.0762L3.28235 13.1027C3.3209 13.149 3.3764 13.2147 3.44801 13.297C3.59116 13.4615 3.79911 13.693 4.06517 13.969C4.59618 14.5199 5.36445 15.2545 6.31635 15.9909C7.652 17.0243 9.4105 18.1086 11.4242 18.6496V26.2834C11.4242 26.5596 11.6481 26.7834 11.9242 26.7834H16.0706C16.3467 26.7834 16.5706 26.5596 16.5706 26.2834V18.6506C18.5859 18.11 20.3458 17.0249 21.6823 15.9909C22.6342 15.2545 23.4024 14.5199 23.9335 13.969C24.1995 13.693 24.4075 13.4615 24.5506 13.297C24.6222 13.2147 24.6777 13.149 24.7163 13.1027C24.7355 13.0795 24.7506 13.0612 24.7613 13.048L24.7741 13.0322L24.7781 13.0273L24.7794 13.0256L24.78 13.025C24.7801 13.0248 24.7803 13.0245 24.2694 12.616L24.2695 12.616L24.7804 13.0245C24.8483 12.9396 24.9002 12.8466 24.9365 12.7494L24.9467 12.7494L25.5599 12.7483C25.894 12.7478 26.2201 12.6486 26.4972 12.4633L26.2181 12.0469L26.4972 12.4632L26.5768 12.4101C27.4482 11.8274 27.5838 10.5982 26.8612 9.83131L26.3721 9.31213C26.1052 9.0289 26.1185 8.58367 26.4016 8.31967L27.1862 7.58812C28.4276 6.43062 27.3794 4.36039 25.708 4.6686L24.7364 4.84777C24.3604 4.9171 23.9969 4.67103 23.9205 4.2954L23.7287 3.35283C23.3838 1.65777 21.0278 1.48672 20.459 3.11546L20.103 4.13487C20.0197 4.37342 19.8184 4.53999 19.584 4.58738C19.975 3.40839 18.916 2.05709 17.5301 2.41775L16.5733 2.66674C16.2028 2.76317 15.8235 2.54402 15.722 2.17485L15.4677 1.2494ZM15.5706 18.8681C15.0596 18.9532 14.535 19 13.9993 19C13.4623 19 12.9364 18.9529 12.4242 18.8675V25.7834H15.5706V18.8681ZM13.9993 18C9.29216 18 5.34462 13.932 4.28125 12.7304L4.37251 12.6995L4.20538 12.1987C4.63744 11.7915 5.667 10.9005 6.49931 10.8C7.60514 10.6665 9.28399 11.8 9.28399 11.8C9.28399 11.8 10.493 9.99482 11.4993 10C12.4845 10.0051 13.9434 11.2 13.9434 11.2C13.9434 11.2 15.4718 9.99493 16.4993 10C17.5057 10.005 18.9993 11.8 18.9993 11.8C18.9993 11.8 20.4626 10.6802 21.4993 10.8C22.3814 10.902 23.5472 11.9633 23.8963 12.2989L23.8391 12.4702L23.9189 12.4973C23.2932 13.241 19.0906 18 13.9993 18ZM3.27977 11.7056C3.27969 11.7057 3.2796 11.7057 3.51704 11.9348L3.51699 11.9348L3.27953 11.7058C3.17022 11.8192 3.09259 11.9524 3.04717 12.094L2.53134 12.2687C1.86683 12.4939 1.32514 11.7121 1.76743 11.1662L2.50138 10.2605C3.06511 9.56476 2.99702 8.55393 2.34552 7.94646L1.49729 7.15554C0.986134 6.67893 1.41774 5.82648 2.10596 5.95339L3.07755 6.13256C3.99067 6.30094 4.87338 5.70333 5.059 4.79109L5.25079 3.84852C5.39281 3.15055 6.36293 3.08012 6.59714 3.75078L7.03066 4.99221C7.26939 5.67583 7.98136 6.07095 8.68954 5.91284L9.02865 5.83713L9.25397 6.07876C9.50355 6.3464 9.50486 6.76112 9.25697 7.03032L8.52822 7.82176C7.81502 8.5963 7.97022 9.82629 8.85346 10.3994L8.88501 10.4199C8.83704 10.3958 8.78785 10.3717 8.7376 10.3477C8.46356 10.2167 8.10472 10.0615 7.70939 9.94794C7.96 9.60027 8.09615 9.1611 8.06468 8.69392C7.99508 7.66054 7.13175 6.8814 6.13638 6.95367C5.14101 7.02593 4.39053 7.92222 4.46013 8.9556C4.49585 9.48598 4.74066 9.94938 5.1051 10.2651C4.78155 10.4483 4.4801 10.6631 4.22641 10.8619C3.95316 11.076 3.71995 11.2837 3.55532 11.4374C3.47253 11.5146 3.40592 11.5793 3.35897 11.6258C3.33547 11.649 3.31682 11.6678 3.30345 11.6813L3.28739 11.6977L3.28242 11.7028L3.28071 11.7046L3.28005 11.7053L3.27977 11.7056ZM10.1771 9.44492C10.0218 9.54759 9.87431 9.66217 9.73688 9.78054L9.39778 9.56051C9.03409 9.32453 8.97019 8.81806 9.26385 8.49913L9.99261 7.7077C10.5946 7.05391 10.5914 6.04675 9.98533 5.39677L9.18671 4.54035C8.70884 4.0279 9.19685 3.20905 9.87495 3.38551L10.8318 3.63451C11.7316 3.86868 12.6526 3.33646 12.8991 2.4399L13.1535 1.51446C13.3421 0.828516 14.3149 0.828511 14.5034 1.51446L14.7578 2.43991C15.0043 3.33647 15.9253 3.86868 16.8251 3.63451L17.782 3.38551C18.4601 3.20905 18.9481 4.0279 18.4702 4.54035L17.7493 5.31339C17.0993 6.01046 17.1493 7.10567 17.8601 7.74063L18.8274 8.60466C19.1567 8.8988 19.1348 9.4206 18.782 9.68607L18.496 9.9012C18.2908 9.73354 18.065 9.56752 17.8291 9.42595C17.493 9.22423 17.0239 9.0026 16.5043 9.00003C16.0684 8.99787 15.6459 9.11999 15.303 9.25374C14.9491 9.39182 14.6118 9.56965 14.3286 9.73641C14.194 9.81563 14.068 9.89456 13.954 9.96888C13.8497 9.89851 13.7354 9.82423 13.6138 9.7496C13.3421 9.58292 13.0175 9.4042 12.6758 9.26425C12.3455 9.12899 11.9334 9.00225 11.5045 9.00003C10.9671 8.99726 10.504 9.22876 10.1771 9.44492ZM20.5192 9.90875C20.1941 9.99676 19.8937 10.1223 19.6438 10.2433C19.8998 9.95045 20.0389 9.58707 20.0587 9.21754C20.1603 9.48219 20.3187 9.71838 20.5192 9.90875ZM22.8139 10.2246C22.7625 10.1964 22.7091 10.1682 22.654 10.1405C23.1491 9.83748 23.4968 9.29485 23.54 8.65464C23.6096 7.62126 22.8591 6.72497 21.8637 6.65271C20.8683 6.58045 20.005 7.35959 19.9354 8.39296C19.9336 8.41994 19.9323 8.44684 19.9316 8.47362C19.8375 8.24669 19.6917 8.03582 19.4936 7.85887L18.5263 6.99483C18.2336 6.73338 18.213 6.28241 18.4807 5.99538L18.9197 5.52463L19.0805 5.56053C19.9199 5.74795 20.7639 5.27958 21.0469 4.46923L21.4029 3.44982C21.6371 2.77917 22.6072 2.84959 22.7492 3.54756L22.941 4.49014C23.1266 5.40238 24.0093 5.99998 24.9225 5.8316L25.894 5.65243C26.5823 5.52552 27.0139 6.37797 26.5027 6.85459L25.7182 7.58614C25.0306 8.22727 24.9984 9.30855 25.6464 9.99639L26.1356 10.5156C26.4331 10.8314 26.3773 11.3375 26.0184 11.5774L25.9389 11.6306C25.8248 11.7069 25.6905 11.7477 25.5529 11.748L24.9398 11.7491C24.8687 11.7492 24.7979 11.7385 24.73 11.7173L24.7131 11.6997L24.704 11.7087L24.7037 11.7086C24.713 11.6995 24.7129 11.6995 24.7129 11.6995L24.7126 11.6992L24.712 11.6985L24.7103 11.6968L24.7053 11.6918L24.6892 11.6756C24.6757 11.6621 24.6568 11.6434 24.633 11.6202C24.5854 11.5738 24.5179 11.5092 24.4341 11.4319C24.2675 11.2782 24.0319 11.0705 23.7575 10.8567C23.4855 10.6448 23.1599 10.4146 22.8139 10.2246ZM14.6351 6.551C14.6351 7.07026 14.239 7.42666 13.8285 7.42666C13.4179 7.42666 13.0218 7.07026 13.0218 6.551C13.0218 6.03174 13.4179 5.67534 13.8285 5.67534C14.239 5.67534 14.6351 6.03174 14.6351 6.551ZM15.6351 6.551C15.6351 7.5869 14.8263 8.42666 13.8285 8.42666C12.8307 8.42666 12.0218 7.5869 12.0218 6.551C12.0218 5.5151 12.8307 4.67534 13.8285 4.67534C14.8263 4.67534 15.6351 5.5151 15.6351 6.551ZM21.6789 9.39715C22.0888 9.42692 22.5077 9.09979 22.5426 8.58223C22.5774 8.06468 22.2065 7.68021 21.7965 7.65045C21.3865 7.62068 20.9676 7.94781 20.9328 8.46537C20.8979 8.98293 21.2689 9.36739 21.6789 9.39715ZM6.32123 9.69811C5.91126 9.72787 5.49237 9.40075 5.45751 8.88319C5.42265 8.36563 5.79361 7.98117 6.20358 7.9514C6.61356 7.92164 7.03245 8.24877 7.06731 8.76632C7.10217 9.28388 6.73121 9.66835 6.32123 9.69811ZM10.2916 12.5309L10.2915 12.5308L10.2915 12.5308C10.1609 12.2875 9.85774 12.1962 9.61447 12.3269C9.3712 12.4575 9.27991 12.7607 9.41057 13.0039L9.85106 12.7674L9.4106 13.004L9.41065 13.0041L9.4108 13.0044L9.41132 13.0053L9.41321 13.0089L9.4203 13.022L9.44704 13.0712C9.4702 13.1136 9.50367 13.1746 9.54537 13.2496C9.62868 13.3994 9.74522 13.6058 9.87806 13.8319C10.1375 14.2735 10.4799 14.8265 10.7622 15.1663C11.0551 15.5188 11.4187 15.8079 11.6963 16.0036C11.8374 16.1031 11.9615 16.1821 12.0512 16.2367C12.0961 16.2641 12.1327 16.2855 12.1586 16.3004L12.1895 16.3179L12.1986 16.3229L12.2014 16.3245L12.2024 16.325L12.2028 16.3253L12.203 16.3253C12.2031 16.3254 12.2031 16.3254 12.4425 15.8865L12.2031 16.3254C12.4456 16.4576 12.7493 16.3683 12.8815 16.1258C13.0137 15.8834 12.9244 15.5798 12.682 15.4476L12.6819 15.4475L12.6819 15.4475L12.6775 15.4451L12.6566 15.4332C12.6374 15.4221 12.6083 15.4051 12.5712 15.3826C12.497 15.3374 12.3921 15.2707 12.2725 15.1864C12.0288 15.0145 11.7445 14.7838 11.5314 14.5272C11.3076 14.2579 11.0022 13.7712 10.7403 13.3254C10.6124 13.1078 10.4999 12.9085 10.4193 12.7636C10.3791 12.6913 10.3469 12.6326 10.3249 12.5923L10.2998 12.5461L10.2935 12.5344L10.2919 12.5315L10.2916 12.5309ZM18.3803 12.3269C18.6236 12.4575 18.7149 12.7607 18.5842 13.0039L18.1438 12.7674L18.5842 13.004L18.5842 13.0041L18.584 13.0044L18.5835 13.0053L18.5816 13.0089L18.5745 13.022L18.5478 13.0712C18.5246 13.1136 18.4911 13.1746 18.4494 13.2496C18.3661 13.3994 18.2496 13.6058 18.1167 13.8319C17.8573 14.2735 17.5149 14.8265 17.2326 15.1663C16.9397 15.5188 16.5761 15.8079 16.2985 16.0036C16.1574 16.1031 16.0333 16.1821 15.9436 16.2367C15.8987 16.2641 15.8621 16.2855 15.8362 16.3004L15.8053 16.3179L15.7962 16.3229L15.7934 16.3245L15.7924 16.325L15.792 16.3253L15.7918 16.3253C15.7917 16.3254 15.7917 16.3254 15.5628 15.9057L15.7917 16.3254C15.5492 16.4576 15.2455 16.3683 15.1133 16.1258C14.9812 15.8836 15.0703 15.5801 15.3124 15.4478L15.3125 15.4477L15.3125 15.4477L15.3127 15.4476L15.3128 15.4476L15.3129 15.4475L15.3129 15.4475L15.3173 15.4451L15.3382 15.4332C15.3574 15.4221 15.3865 15.4051 15.4236 15.3826C15.4978 15.3374 15.6027 15.2707 15.7223 15.1864C15.9661 15.0145 16.2503 14.7838 16.4634 14.5272C16.6872 14.2579 16.9926 13.7712 17.2545 13.3254C17.3824 13.1078 17.4949 12.9085 17.5755 12.7636C17.6157 12.6913 17.6479 12.6326 17.6699 12.5923L17.695 12.5461L17.7013 12.5344L17.7029 12.5315L17.7032 12.5309L17.7033 12.5308L17.7033 12.5308C17.8339 12.2875 18.1371 12.1962 18.3803 12.3269ZM14.4974 12.7674C14.4974 12.4912 14.2735 12.2674 13.9974 12.2674C13.7213 12.2674 13.4974 12.4912 13.4974 12.7674V14.5497V15.4409V15.8865C13.4974 16.1626 13.7213 16.3865 13.9974 16.3865C14.2735 16.3865 14.4974 16.1626 14.4974 15.8865V15.4409V14.5497V12.7674Z" fill="black"/>
</svg>
