<svg width="28" height="28" viewBox="0 0 28 28" fill="none" xmlns="http://www.w3.org/2000/svg">
<path fill-rule="evenodd" clip-rule="evenodd" d="M3.47483 0.5C3.47483 0.223858 3.25097 0 2.97483 0C2.69868 0 2.47483 0.223858 2.47483 0.5V1.35151C1.0491 1.73633 0 3.03867 0 4.58603V24.6508C0 26.5009 1.49985 28.0008 3.35 28.0008H24.6504C26.5006 28.0008 28.0004 26.5009 28.0004 24.6508V4.58603C28.0004 3.03851 26.9511 1.73607 25.5252 1.35139V0.5C25.5252 0.223858 25.3013 0 25.0252 0C24.749 0 24.5252 0.223858 24.5252 0.5V1.23603H18.175V0.5C18.175 0.223858 17.9512 0 17.675 0C17.3989 0 17.175 0.223858 17.175 0.5V1.23603H10.8249V0.5C10.8249 0.223858 10.6011 0 10.3249 0C10.0488 0 9.82494 0.223858 9.82494 0.5V1.23603H3.47483V0.5ZM24.5252 1.93603H18.175V4.84412C18.175 5.12026 17.9512 5.34412 17.675 5.34412C17.3989 5.34412 17.175 5.12026 17.175 4.84412V1.93603H10.8249V4.84412C10.8249 5.12026 10.6011 5.34412 10.3249 5.34412C10.0488 5.34412 9.82494 5.12026 9.82494 4.84412V1.93603H3.47483V4.84412C3.47483 5.12026 3.25097 5.34412 2.97483 5.34412C2.69868 5.34412 2.47483 5.12026 2.47483 4.84412V2.08396C1.44131 2.44543 0.7 3.42916 0.7 4.58603V24.6508C0.7 26.1143 1.88645 27.3008 3.35 27.3008H24.6504C26.114 27.3008 27.3004 26.1143 27.3004 24.6508V4.58603C27.3004 3.429 26.5589 2.44516 25.5252 2.08381V4.84412C25.5252 5.12026 25.3013 5.34412 25.0252 5.34412C24.749 5.34412 24.5252 5.12026 24.5252 4.84412V1.93603ZM8.14991 19.0526V19.8934H14.3836V18.8658H9.79035V18.7911L12.0098 16.493C12.5759 15.9045 13.0181 15.4063 13.3366 14.9983C13.6582 14.5873 13.8834 14.2152 14.0121 13.882C14.1439 13.5457 14.2099 13.2016 14.2099 12.8497C14.2099 12.3577 14.0828 11.9109 13.8287 11.5092C13.5746 11.1075 13.224 10.7883 12.7769 10.5517C12.3298 10.315 11.8168 10.1967 11.2378 10.1967C10.662 10.1967 10.1426 10.315 9.67938 10.5517C9.21941 10.7883 8.85594 11.1184 8.58897 11.5419C8.32199 11.9654 8.18851 12.4574 8.18851 13.0179H9.32716C9.32716 12.6536 9.40275 12.3359 9.55393 12.065C9.70832 11.7941 9.92544 11.5839 10.2053 11.4345C10.4883 11.2819 10.8196 11.2056 11.1992 11.2056C11.5562 11.2056 11.8779 11.2725 12.1642 11.4064C12.4504 11.5403 12.6756 11.7303 12.8396 11.9763C13.0069 12.2223 13.0905 12.5134 13.0905 12.8497C13.0905 13.1424 13.0294 13.4227 12.9072 13.6905C12.7882 13.9552 12.6048 14.2385 12.3571 14.5406C12.1095 14.8395 11.7943 15.1914 11.4115 15.5962L8.14991 19.0526ZM19.8501 19.8934V10.3275H18.6535L16.1832 11.9156V13.0926L18.5956 11.5419H18.6535V19.8934H19.8501Z" fill="black"/>
</svg>
