<svg width="28" height="28" viewBox="0 0 28 28" fill="none" xmlns="http://www.w3.org/2000/svg">
<path fill-rule="evenodd" clip-rule="evenodd" d="M2.97483 -0.00038147C3.25098 -0.00038147 3.47483 0.223476 3.47483 0.499619V1.23566H9.82494V0.499619C9.82494 0.223476 10.0488 -0.00038147 10.3249 -0.00038147C10.6011 -0.00038147 10.8249 0.223476 10.8249 0.499619V1.23566H17.175V0.499619C17.175 0.223476 17.3989 -0.00038147 17.675 -0.00038147C17.9512 -0.00038147 18.175 0.223476 18.175 0.499619V1.23566H24.5252V0.499619C24.5252 0.223476 24.749 -0.00038147 25.0252 -0.00038147C25.3013 -0.00038147 25.5252 0.223476 25.5252 0.499619V1.23566H25.6502C26.9481 1.23566 28.0002 2.28778 28.0002 3.58565V25.6504C28.0002 26.9483 26.9481 28.0004 25.6502 28.0004H2.34979C1.05192 28.0004 -0.000213623 26.9483 -0.000213623 25.6504V3.58566C-0.000213623 2.28779 1.05192 1.23566 2.34979 1.23566H2.47483V0.499619C2.47483 0.223476 2.69869 -0.00038147 2.97483 -0.00038147ZM24.5252 1.93566V4.84374C24.5252 5.11988 24.749 5.34374 25.0252 5.34374C25.3013 5.34374 25.5252 5.11988 25.5252 4.84374V1.93566H25.6502C26.5615 1.93566 27.3002 2.67438 27.3002 3.58565V25.6504C27.3002 26.5617 26.5615 27.3004 25.6502 27.3004H2.34979C1.43852 27.3004 0.699786 26.5617 0.699786 25.6504V3.58566C0.699786 2.67439 1.43852 1.93566 2.34979 1.93566H2.47483V4.84374C2.47483 5.11988 2.69869 5.34374 2.97483 5.34374C3.25098 5.34374 3.47483 5.11988 3.47483 4.84374V1.93566H9.82494V4.84374C9.82494 5.11988 10.0488 5.34374 10.3249 5.34374C10.6011 5.34374 10.8249 5.11988 10.8249 4.84374V1.93566H17.175V4.84374C17.175 5.11988 17.3989 5.34374 17.675 5.34374C17.9512 5.34374 18.175 5.11988 18.175 4.84374V1.93566H24.5252ZM4.54983 8.10183H23.4501V7.10183H4.54983V8.10183ZM23.4501 12.446H4.54983V11.446H23.4501V12.446ZM4.54983 16.7901H23.4501V15.7901H4.54983V16.7901ZM23.4501 21.1342H4.54983V20.1342H23.4501V21.1342ZM4.54983 25.4783H23.4501V24.4783H4.54983V25.4783Z" fill="black"/>
</svg>
