<svg width="22" height="28" viewBox="0 0 22 28" fill="none" xmlns="http://www.w3.org/2000/svg">
<path fill-rule="evenodd" clip-rule="evenodd" d="M6.57568 0C6.40005 0 6.2373 0.0921494 6.14693 0.242752L4.35357 3.2317C4.23552 3.42843 4.26653 3.68026 4.42876 3.8425L7.55088 6.96462C3.17568 8.32995 0 12.4132 0 17.2381C0 23.1808 4.8175 27.9983 10.7602 27.9983C16.7029 27.9983 21.5204 23.1808 21.5204 17.2381C21.5204 12.4132 18.3447 8.32996 13.9695 6.96462L17.0916 3.8425C17.2539 3.68026 17.2849 3.42843 17.1668 3.2317L15.3735 0.242752C15.2831 0.0921494 15.1204 0 14.9447 0H10.7602H6.57568ZM12.841 6.67892C12.7105 6.65334 12.5791 6.63012 12.4469 6.60931L13.4904 3.98894H15.531L12.841 6.67892ZM11.415 6.49748C11.1984 6.48448 10.9801 6.47788 10.7602 6.47788C10.5422 6.47788 10.3257 6.48437 10.1108 6.49716L9.10756 3.98894H12.414L11.415 6.49748ZM10.5045 7.48117C10.5894 7.47898 10.6747 7.47788 10.7602 7.47788C10.8481 7.47788 10.9358 7.47905 11.0232 7.48136L10.7644 8.13109L10.5045 7.48117ZM8.36117 7.77491C4.13073 8.84406 1 12.6755 1 17.2381C1 22.6285 5.36979 26.9983 10.7602 26.9983C16.1506 26.9983 20.5204 22.6285 20.5204 17.2381C20.5204 12.6755 17.3897 8.84406 13.1592 7.77491L11.9772 8.95689C16.0225 9.54624 19.1292 13.0294 19.1292 17.2381C19.1292 21.8602 15.3823 25.6071 10.7602 25.6071C6.13811 25.6071 2.39116 21.8602 2.39116 17.2381C2.39116 13.0294 5.49788 9.54624 9.54316 8.95689L8.36117 7.77491ZM10.4709 9.87462C6.53517 10.0266 3.39116 13.2652 3.39116 17.2381C3.39116 21.3079 6.69039 24.6071 10.7602 24.6071C14.83 24.6071 18.1292 21.3079 18.1292 17.2381C18.1292 13.2652 14.9852 10.0266 11.0495 9.87462C10.9655 9.93421 10.8646 9.96683 10.7602 9.96683C10.6558 9.96683 10.5549 9.93421 10.4709 9.87462ZM9.07837 6.60855L8.03053 3.98894H5.98942L8.67939 6.67892C8.81154 6.65303 8.94454 6.62956 9.07837 6.60855ZM5.66541 2.98894L6.57568 1.47183L7.48595 2.98894H5.66541ZM15.855 2.98894H14.0345L14.9447 1.47183L15.855 2.98894ZM11.8005 1H14.0616L13.0926 2.61508L11.8005 1ZM10.7602 1.30039L12.111 2.98894H9.40936L10.7602 1.30039ZM9.71989 1L8.42782 2.61508L7.45878 1H9.71989Z" fill="black"/>
</svg>
